<?xml version="1.0" standalone="no"?>
<!DOCTYPE svg PUBLIC "-//W3C//DTD SVG 20010904//EN"
 "http://www.w3.org/TR/2001/REC-SVG-20010904/DTD/svg10.dtd">
<svg version="1.0" xmlns="http://www.w3.org/2000/svg"
 width="512.000000pt" height="512.000000pt" viewBox="0 0 512.000000 512.000000"
 preserveAspectRatio="xMidYMid meet">
<metadata>
Created by potrace 1.16, written by Peter Selinger 2001-2019
</metadata>
<g transform="translate(0.000000,512.000000) scale(0.100000,-0.100000)"
fill="#000000" stroke="none">
<path d="M2300 4789 c-41 -5 -129 -20 -196 -34 -767 -160 -1410 -739 -1664
-1501 -85 -255 -120 -477 -120 -754 0 -375 74 -696 234 -1025 228 -465 572
-813 1028 -1040 247 -123 329 -141 390 -86 l33 29 3 227 3 228 -23 -7 c-13 -3
-67 -11 -121 -18 -271 -31 -498 78 -597 287 -16 36 -44 94 -60 130 -45 95
-115 181 -194 240 -39 29 -77 59 -85 68 -21 26 -9 51 33 65 33 10 49 10 100
-3 118 -30 203 -98 292 -232 71 -109 128 -164 212 -205 64 -32 72 -33 182 -33
94 0 128 4 187 24 66 21 72 26 78 55 16 77 51 163 91 222 42 61 43 64 21 68
-12 3 -63 12 -113 20 -481 83 -757 334 -848 772 -39 184 -39 434 -2 576 32
120 102 258 170 335 l30 35 -18 66 c-38 139 -32 319 17 474 l23 73 60 -1 c113
-1 277 -65 450 -174 l99 -62 95 21 c192 42 232 46 470 46 238 0 279 -4 470
-46 l95 -21 70 47 c86 57 248 137 334 164 73 24 180 36 199 23 7 -4 24 -53 39
-108 35 -131 37 -330 6 -436 -18 -59 -18 -69 -6 -80 23 -19 87 -116 120 -183
68 -136 93 -254 93 -439 0 -301 -71 -544 -211 -730 -98 -128 -269 -241 -456
-300 -94 -29 -267 -66 -310 -66 -44 0 -46 -9 -8 -52 43 -51 72 -112 96 -206
17 -68 19 -113 19 -455 0 -412 2 -431 56 -456 65 -29 152 -5 372 104 452 224
799 574 1023 1030 107 217 174 425 214 665 22 128 31 467 16 611 -94 908 -698
1671 -1545 1953 -128 42 -303 80 -438 95 -112 13 -398 12 -508 0z m550 -176
c575 -78 1109 -425 1441 -935 405 -625 456 -1440 130 -2113 -172 -356 -416
-639 -739 -854 -91 -61 -253 -148 -349 -188 l-53 -22 0 339 c0 325 -5 404 -35
505 -5 18 6 24 104 54 430 132 693 432 777 886 22 120 30 409 14 517 -21 148
-76 290 -163 427 -30 47 -33 58 -26 90 5 20 12 81 15 136 8 129 -14 271 -63
415 l-36 109 -46 16 c-164 56 -400 -2 -663 -163 l-68 -40 -92 18 c-269 54
-607 54 -876 0 l-94 -19 -51 33 c-151 97 -340 171 -477 189 -74 9 -97 8 -156
-6 -38 -10 -74 -23 -81 -30 -17 -17 -69 -166 -89 -258 -19 -86 -23 -330 -7
-397 11 -42 10 -45 -42 -128 -60 -95 -104 -201 -131 -319 -29 -123 -27 -449 4
-603 40 -197 109 -363 203 -488 65 -86 66 -88 22 -66 -112 57 -274 68 -358 25
-48 -25 -90 -68 -104 -106 -15 -40 -14 -111 3 -152 19 -46 86 -117 147 -156
64 -40 129 -131 180 -250 21 -51 46 -103 54 -116 54 -81 -87 64 -208 215 -228
285 -387 672 -438 1067 -17 131 -14 408 5 550 126 913 802 1636 1688 1806 210
40 424 44 658 12z m-1255 -3148 c50 -24 134 -57 188 -72 l97 -28 -6 -30 c-3
-16 -8 -32 -10 -34 -11 -12 -165 -12 -199 -1 -65 22 -131 93 -220 240 -5 8 5
5 26 -9 18 -12 75 -42 124 -66z m-5 -810 c36 -8 107 -15 158 -15 l92 0 0 -65
c0 -45 -4 -65 -12 -65 -7 0 -71 29 -143 63 -132 65 -216 113 -180 103 11 -3
49 -12 85 -21z"/>
</g>
</svg>
